<svg xmlns="http://www.w3.org/2000/svg" version="1.1" xmlns:xlink="http://www.w3.org/1999/xlink" xmlns:svgjs="http://svgjs.dev/svgjs" width="146.29" height="145.77"><svg xmlns="http://www.w3.org/2000/svg" viewBox="0 0 146.29 145.77"><defs><style>.cls-1{fill:#14f46f;}</style></defs><g id="SvgjsG1023" data-name="图层 2"><g id="SvgjsG1022" data-name="图层 1"><path class="cls-1" d="M131.93,106.23V75.09a3.11,3.11,0,0,0-2.84-3.16,3,3,0,0,0-3.16,3v31.31a5.78,5.78,0,0,1-3.64,5.31l-.09,0a5.81,5.81,0,0,1-6.36-1.14l-37.63-37a22.49,22.49,0,0,1-5.46-23.49c0-.08,0-.15.08-.22a13.79,13.79,0,0,1,13-9.27H143a3.12,3.12,0,0,0,3.17-2.84,3,3,0,0,0-3-3.16H85.86a13.81,13.81,0,0,1-13-9.28A37.44,37.44,0,1,0,25.17,72.82a13.81,13.81,0,0,1,9.28,13V142.6a3.1,3.1,0,0,0,2.84,3.16,3,3,0,0,0,3.16-3V85.86a13.73,13.73,0,0,1,9.19-13l1-.34A22.32,22.32,0,0,1,74,77.7l37.63,37a5.68,5.68,0,0,1,1.26,6.22l0,.09a5.69,5.69,0,0,1-5.27,3.54H76.24a3.1,3.1,0,0,0-3.16,2.84,3,3,0,0,0,3,3.16h31.52a5.74,5.74,0,0,1,5.3,3.61,17.35,17.35,0,1,0,22.65-22.65A5.76,5.76,0,0,1,131.93,106.23Z"></path></g></g></svg><style>@media (prefers-color-scheme: light) { :root { filter: none; } }
@media (prefers-color-scheme: dark) { :root { filter: none; } }
</style></svg>